<svg xmlns="http://www.w3.org/2000/svg" viewBox="0 0 170.07864 170.07864" height="48mm" width="48mm">
  <g transform="translate(0,-882.28411)">
    <path d="m 84.325341,885.5858 a 82.074898,82.074898 0 0 0 -82.001954,82.12305 82.074898,82.074898 0 0 0 82.09961,82.02735 82.074898,82.074898 0 0 0 82.050773,-82.07618 l 0,-0.0957 A 82.074898,82.074898 0 0 0 84.325341,885.5858 Z m -0.375,17.54101 a 64.285713,64.285713 0 0 1 64.343749,64.21094 l 0,0.0742 A 64.285713,64.285713 0 0 1 84.026513,1031.6971 64.285713,64.285713 0 0 1 19.721825,967.44908 64.285713,64.285713 0 0 1 83.950341,903.12681 Z"/>
  </g>
  <g transform="translate(0,-882.28411)">
    <g transform="matrix(0.70710678,-0.70710678,0.70710678,0.70710678,0,0)">
      <path d="m -670.20077,773.35864 19.79052,0 0,-38.11011 c 0,-1.60463 0.13372,-3.47671 0.80232,-5.08134 1.20347,-3.343 4.27903,-7.35459 9.49409,-7.35459 6.41855,0 9.36038,5.61623 9.36038,13.90685 l 0,36.63919 19.79051,0 0,-38.24383 c 0,-1.60463 0.26744,-3.74415 0.80232,-5.21506 1.3372,-3.87787 4.68019,-7.08715 9.36038,-7.08715 6.55226,0 9.62782,5.48251 9.62782,14.97661 l 0,35.56943 19.79051,0 0,-38.51127 c 0,-19.52307 -9.4941,-28.34857 -22.06375,-28.34857 -4.81391,0 -8.8255,1.06976 -12.43593,3.20927 -3.07555,1.87208 -6.01738,4.41275 -8.42434,7.88947 l -0.26744,0 c -2.80811,-6.81971 -9.4941,-11.09874 -17.91844,-11.09874 -11.23245,0 -16.98239,6.15111 -19.79051,10.29642 l -0.40116,0 -0.93604,-8.8255 -17.11611,0 c 0.26744,5.74994 0.53487,12.70337 0.53487,20.86027 l 0,44.52865 z"/>
    </g>
  </g>
</svg>
