<svg width="250" height="250" viewBox="0 0 250 250"
  xmlns="http://www.w3.org/2000/svg">
  <path d="M213.7,53h-73.3l20.9-36.2c2.6-4.4,1-10.1-3.4-12.7s-10.1-1-12.7,3.4l-20.6,35.7L104.1,7.7c-2.6-4.4-8.2-5.9-12.7-3.4v0C87,6.8,85.5,12.5,88,16.9L108.9,53H36.3C18.7,53,4.4,67.8,4.4,85.9v99.8c0,18.2,14.3,32.9,31.9,32.9h132.2l16.9,30.4l16.9-30.4h11.3c17.6,0,31.9-14.7,31.9-32.9V85.9C245.6,67.8,231.3,53,213.7,53z M228.7,185.1c0,9.6-7.8,17.4-17.4,17.4H38.9c-9.6,0-17.4-7.8-17.4-17.4V86.8c0-9.6,7.8-17.4,17.4-17.4h172.4c9.6,0,17.4,7.8,17.4,17.4V185.1z" />
  <path d="M199.1,83.3H51.4c-7.8,0-14.2,6.4-14.2,14.2v78.7c0,7.8,6.4,14.2,14.2,14.2h147.8c7.8,0,14.2-6.4,14.2-14.2V97.5C213.4,89.6,207,83.3,199.1,83.3z M121.6,163h-14.7v-51.7h14.7V163z M148.1,163h-14.7v-51.7h14.7V163z"/>
</svg>
